<svg xmlns="http://www.w3.org/2000/svg" viewBox="0 0 32 32" fill="none">
  <rect width="32" height="32" rx="8" fill="url(#g)"/>
  <defs>
    <linearGradient id="g" x1="0" y1="0" x2="32" y2="32" gradientUnits="userSpaceOnUse">
      <stop stop-color="#fb923c"/>
      <stop offset="1" stop-color="#ea580c"/>
    </linearGradient>
  </defs>
  <g transform="translate(5,7)" fill="none" stroke="white" stroke-width="2" stroke-linecap="round" stroke-linejoin="round">
    <!-- Left arm -->
    <path d="M1 9l3-3c1-1 2.5-1 3.5 0L11 9.5"/>
    <!-- Right arm -->
    <path d="M21 9l-3-3c-1-1-2.5-1-3.5 0L11 9.5"/>
    <!-- Handshake clasp -->
    <path d="M7 12l2.5 2.5c.5.5 1.3.5 1.8 0L14 12"/>
    <path d="M4.5 9.5L7 12"/>
    <path d="M17.5 9.5L14 12"/>
    <!-- Fingers -->
    <path d="M9 14.5l1.5 1.5c.4.4 1 .4 1.4 0l1-1"/>
  </g>
</svg>
