<svg xmlns="http://www.w3.org/2000/svg" viewBox="0 0 32 32">
  <rect width="32" height="32" rx="7" fill="url(#fg)"/>
  <defs>
    <linearGradient id="fg" x1="0" y1="0" x2="32" y2="32" gradientUnits="userSpaceOnUse">
      <stop stop-color="#fb923c"/>
      <stop offset="1" stop-color="#ea580c"/>
    </linearGradient>
  </defs>
  <path d="M7.5 18.5l-1.8-1.8a1 1 0 010-1.4L10 11a2 2 0 012.8 0l1.2 1.2 1.2-1.2a2 2 0 012.8 0l4.3 4.3a1 1 0 010 1.4l-1.8 1.8" fill="none" stroke="white" stroke-width="1.8" stroke-linecap="round" stroke-linejoin="round"/>
  <path d="M10 16.5l2.3 2.3a1 1 0 001.4 0L16 16.5" fill="none" stroke="white" stroke-width="1.8" stroke-linecap="round" stroke-linejoin="round"/>
  <path d="M13 19.5l1.3 1.3a1 1 0 001.4 0l2-2" fill="none" stroke="white" stroke-width="1.8" stroke-linecap="round" stroke-linejoin="round"/>
  <path d="M16 21l1 1a1 1 0 001.4 0l1.6-1.6" fill="none" stroke="white" stroke-width="1.8" stroke-linecap="round" stroke-linejoin="round"/>
</svg>
