<svg xmlns="http://www.w3.org/2000/svg" viewBox="0 0 40 40">
  <rect width="40" height="40" rx="10" fill="url(#lg)"/>
  <defs>
    <linearGradient id="lg" x1="0" y1="0" x2="40" y2="40" gradientUnits="userSpaceOnUse">
      <stop stop-color="#fb923c"/>
      <stop offset="1" stop-color="#ea580c"/>
    </linearGradient>
  </defs>
  <g fill="none" stroke="white" stroke-width="2.2" stroke-linecap="round" stroke-linejoin="round">
    <!-- Arms reaching in -->
    <path d="M8.5 22L6 19.5a1.2 1.2 0 010-1.7L11.5 12a2.4 2.4 0 013.4 0L16.5 13.5l1.5-1.5a2.4 2.4 0 013.4 0L27 17.5a1.2 1.2 0 010 1.7L24.5 22"/>
    <!-- Clasped hands -->
    <path d="M12 20l2.8 2.8a1.2 1.2 0 001.7 0L20 19.5"/>
    <path d="M15.5 23.5l1.5 1.5a1.2 1.2 0 001.7 0L21 22.5"/>
    <path d="M19 25.5l1 1a1.2 1.2 0 001.7 0l1.5-1.5"/>
  </g>
</svg>
