<svg xmlns="http://www.w3.org/2000/svg" viewBox="0 0 40 40" fill="none">
  <rect width="40" height="40" rx="10" fill="url(#lg)"/>
  <defs>
    <linearGradient id="lg" x1="0" y1="0" x2="40" y2="40" gradientUnits="userSpaceOnUse">
      <stop stop-color="#fb923c"/>
      <stop offset="1" stop-color="#ea580c"/>
    </linearGradient>
  </defs>
  <!-- Handshake -->
  <g fill="white">
    <!-- Left hand -->
    <path d="M8 21.5c-.3 0-.5-.1-.7-.3l-1.5-1.5c-.4-.4-.4-1 0-1.4l5-5c.8-.8 2-.8 2.8 0l2.2 2.2.7-.7c.8-.8 2-.8 2.8 0l5 5c.4.4.4 1 0 1.4l-1.5 1.5c-.2.2-.4.3-.7.3-.3 0-.5-.1-.7-.3L20 21.3l-1.2 1.2c-.6.6-1.5.6-2.1 0L15.5 21l-1.2 1.2c-.6.6-1.5.6-2.1 0L11 21l-2.3 1.2c-.2.2-.4.3-.7.3z"/>
    <!-- Clean handshake shape -->
    <path d="M13.5 14.3l-4 4L11 19.8l2-2c.4-.4 1-.4 1.4 0l2 2c.2.2.2.5 0 .7l-.7.7 1 1c.2.2.5.2.7 0l1.2-1.2c.4-.4 1-.4 1.4 0l2 2 1.5-1.5-4-4-.7.7c-.4.4-1 .4-1.4 0L15 15c-.4-.4-.4-1 0-1.4l.7-.7-1.5-1.5c-.2-.2-.5-.2-.7 0z" opacity="0.95"/>
  </g>
</svg>
